<?xml version="1.0" encoding="UTF-8"?>
<svg xmlns="http://www.w3.org/2000/svg" xmlns:xlink="http://www.w3.org/1999/xlink" width="854" height="480" viewBox="0 0 854 480">
<defs>
<g>
<g id="glyph-0-0">
<path d="M 2.554688 0 L 0.269531 0 L 0.269531 -0.332031 C 0.3125 -0.382812 0.375 -0.441406 0.453125 -0.503906 C 0.53125 -0.566406 0.621094 -0.632812 0.730469 -0.707031 C 0.796875 -0.75 0.875 -0.800781 0.964844 -0.851562 C 1.054688 -0.902344 1.160156 -0.960938 1.273438 -1.023438 C 1.402344 -1.089844 1.5 -1.148438 1.570312 -1.203125 C 1.640625 -1.253906 1.703125 -1.320312 1.761719 -1.394531 C 1.796875 -1.445312 1.828125 -1.507812 1.851562 -1.585938 C 1.875 -1.660156 1.882812 -1.765625 1.882812 -1.90625 C 1.882812 -2.109375 1.832031 -2.257812 1.722656 -2.355469 C 1.613281 -2.449219 1.472656 -2.496094 1.300781 -2.496094 C 1.195312 -2.496094 1.09375 -2.476562 1 -2.433594 C 0.90625 -2.394531 0.835938 -2.335938 0.789062 -2.261719 C 0.800781 -2.210938 0.8125 -2.148438 0.832031 -2.078125 C 0.847656 -2.007812 0.855469 -1.9375 0.855469 -1.867188 C 0.855469 -1.804688 0.832031 -1.75 0.78125 -1.703125 C 0.730469 -1.65625 0.652344 -1.632812 0.550781 -1.632812 C 0.46875 -1.632812 0.40625 -1.660156 0.363281 -1.714844 C 0.320312 -1.769531 0.296875 -1.847656 0.296875 -1.941406 C 0.296875 -2.027344 0.320312 -2.117188 0.371094 -2.207031 C 0.421875 -2.292969 0.488281 -2.375 0.582031 -2.453125 C 0.671875 -2.523438 0.78125 -2.582031 0.914062 -2.628906 C 1.046875 -2.675781 1.1875 -2.699219 1.339844 -2.699219 C 1.675781 -2.699219 1.9375 -2.625 2.136719 -2.476562 C 2.332031 -2.324219 2.429688 -2.128906 2.429688 -1.878906 C 2.429688 -1.757812 2.410156 -1.652344 2.375 -1.554688 C 2.339844 -1.457031 2.285156 -1.371094 2.207031 -1.296875 C 2.121094 -1.210938 2.019531 -1.140625 1.90625 -1.082031 C 1.789062 -1.023438 1.613281 -0.941406 1.375 -0.835938 C 1.234375 -0.769531 1.101562 -0.703125 0.980469 -0.636719 C 0.855469 -0.566406 0.757812 -0.5 0.679688 -0.433594 L 2.554688 -0.433594 Z "/>
</g>
<g id="glyph-0-1">
</g>
<g id="glyph-0-2">
<path d="M 3.824219 0 L 2.386719 0 L 2.386719 -0.171875 C 2.425781 -0.175781 2.484375 -0.179688 2.558594 -0.1875 C 2.632812 -0.195312 2.683594 -0.203125 2.710938 -0.21875 C 2.757812 -0.238281 2.792969 -0.265625 2.816406 -0.304688 C 2.839844 -0.347656 2.851562 -0.398438 2.851562 -0.460938 L 2.851562 -1.695312 L 1.222656 -1.695312 L 1.222656 -0.488281 C 1.222656 -0.429688 1.234375 -0.382812 1.25 -0.34375 C 1.269531 -0.304688 1.308594 -0.269531 1.363281 -0.242188 C 1.390625 -0.226562 1.4375 -0.210938 1.511719 -0.199219 C 1.582031 -0.183594 1.636719 -0.175781 1.675781 -0.171875 L 1.675781 0 L 0.238281 0 L 0.238281 -0.171875 C 0.277344 -0.175781 0.335938 -0.179688 0.410156 -0.1875 C 0.484375 -0.195312 0.535156 -0.203125 0.5625 -0.21875 C 0.609375 -0.238281 0.644531 -0.265625 0.667969 -0.304688 C 0.691406 -0.347656 0.703125 -0.398438 0.703125 -0.460938 L 0.703125 -2.960938 C 0.703125 -3.011719 0.691406 -3.0625 0.671875 -3.105469 C 0.648438 -3.148438 0.613281 -3.179688 0.5625 -3.207031 C 0.515625 -3.226562 0.464844 -3.246094 0.402344 -3.261719 C 0.339844 -3.277344 0.285156 -3.289062 0.238281 -3.289062 L 0.238281 -3.464844 L 1.675781 -3.464844 L 1.675781 -3.289062 C 1.632812 -3.289062 1.574219 -3.28125 1.511719 -3.269531 C 1.445312 -3.257812 1.394531 -3.242188 1.363281 -3.234375 C 1.308594 -3.210938 1.269531 -3.179688 1.25 -3.132812 C 1.234375 -3.089844 1.222656 -3.039062 1.222656 -2.984375 L 1.222656 -1.910156 L 2.851562 -1.910156 L 2.851562 -2.960938 C 2.851562 -3.011719 2.839844 -3.0625 2.820312 -3.105469 C 2.796875 -3.148438 2.761719 -3.179688 2.710938 -3.207031 C 2.664062 -3.226562 2.613281 -3.246094 2.550781 -3.261719 C 2.488281 -3.277344 2.433594 -3.289062 2.386719 -3.289062 L 2.386719 -3.464844 L 3.824219 -3.464844 L 3.824219 -3.289062 C 3.78125 -3.289062 3.722656 -3.28125 3.660156 -3.269531 C 3.59375 -3.257812 3.542969 -3.242188 3.511719 -3.234375 C 3.457031 -3.210938 3.417969 -3.179688 3.398438 -3.132812 C 3.382812 -3.089844 3.371094 -3.039062 3.371094 -2.984375 L 3.371094 -0.488281 C 3.371094 -0.429688 3.382812 -0.382812 3.398438 -0.34375 C 3.417969 -0.304688 3.457031 -0.269531 3.511719 -0.242188 C 3.539062 -0.226562 3.585938 -0.210938 3.660156 -0.199219 C 3.730469 -0.183594 3.785156 -0.175781 3.824219 -0.171875 Z "/>
</g>
<g id="glyph-0-3">
<path d="M 2.082031 0 L 0.132812 0 L 0.132812 -0.128906 L 1.5 -2.210938 L 1.160156 -2.210938 C 1.019531 -2.210938 0.910156 -2.207031 0.828125 -2.203125 C 0.75 -2.195312 0.675781 -2.179688 0.609375 -2.152344 C 0.5625 -2.136719 0.519531 -2.085938 0.480469 -2 C 0.441406 -1.914062 0.40625 -1.804688 0.375 -1.667969 L 0.226562 -1.667969 L 0.226562 -2.40625 L 2.066406 -2.40625 L 2.066406 -2.308594 L 0.683594 -0.199219 C 0.742188 -0.195312 0.808594 -0.195312 0.875 -0.195312 C 0.945312 -0.191406 1.023438 -0.191406 1.105469 -0.191406 C 1.167969 -0.191406 1.238281 -0.195312 1.308594 -0.195312 C 1.378906 -0.195312 1.46875 -0.199219 1.578125 -0.207031 C 1.644531 -0.210938 1.695312 -0.234375 1.726562 -0.273438 C 1.761719 -0.3125 1.785156 -0.359375 1.804688 -0.414062 C 1.820312 -0.460938 1.84375 -0.523438 1.867188 -0.609375 C 1.894531 -0.691406 1.917969 -0.773438 1.9375 -0.851562 L 2.082031 -0.851562 Z "/>
</g>
</g>
</defs>
<g fill="rgb(96.862745%, 85.098039%, 43.529412%)" fill-opacity="1">
<use xlink:href="#glyph-0-0" x="30" y="24.584961"/>
<use xlink:href="#glyph-0-1" x="33" y="24.584961"/>
<use xlink:href="#glyph-0-2" x="34" y="24.584961"/>
<use xlink:href="#glyph-0-3" x="38" y="24.584961"/>
</g>
</svg>
